<?xml version="1.0" encoding="UTF-8"?>
<!-- Generated by Pixelmator Pro 3.6.8 -->
<svg width="824" height="824" viewBox="0 0 824 824" xmlns="http://www.w3.org/2000/svg">
    <linearGradient id="linearGradient1" x1="410.814647" y1="549.81561" x2="414.176664" y2="-668.536276" gradientUnits="userSpaceOnUse">
        <stop offset="1e-05" stop-color="#9a1860" stop-opacity="1"/>
        <stop offset="1" stop-color="#ff9400" stop-opacity="1"/>
    </linearGradient>
    <path id="canvas-Kopie" fill="url(#linearGradient1)" fill-rule="evenodd" stroke="none" visibility="hidden" d="M 0 518.75 C 0 631.100098 0 687.275085 23.588238 729.394897 C 40.259083 759.162842 64.837135 783.740906 94.605072 800.411743 C 136.724899 824 192.899933 824 305.25 824 L 518.75 824 C 631.100037 824 687.275085 824 729.394958 800.411743 C 759.162903 783.740906 783.740967 759.162842 800.411804 729.394897 C 824.000061 687.275085 824.000061 631.100098 824.000061 518.75 L 824 305.25 C 824 192.899963 824 136.724915 800.411743 94.605042 C 783.740906 64.837097 759.162842 40.259033 729.394897 23.588196 C 687.275085 -6.1e-05 631.100037 -6.1e-05 518.749939 -6.1e-05 L 305.25 0 C 192.899933 0 136.724899 0 94.605072 23.588257 C 64.837135 40.259094 40.259087 64.837158 23.58824 94.605103 C 1e-06 136.724915 1e-06 192.899963 1e-06 305.250061 Z"/>
    <linearGradient id="linearGradient2" x1="-27.035034" y1="841.435059" x2="1094.911377" y2="-108.880127" gradientUnits="userSpaceOnUse">
        <stop offset="0" stop-color="#6b31b2" stop-opacity="1"/>
        <stop offset="1" stop-color="#33ecfd" stop-opacity="1"/>
    </linearGradient>
    <path id="Rechteck-Kopie" fill="url(#linearGradient2)" fill-rule="evenodd" stroke="none" d="M 0 824 L 824 824 L 824 0 L 0 0 Z"/>
    <g id="Gruppe" style="mix-blend-mode:overlay">
        <path id="Pfad" fill="#ffffff" fill-opacity="0.101031" fill-rule="evenodd" stroke="none" d="M 708.424255 479.330536 C 709.862671 474.837341 712.071045 465.612335 715.623901 446.5 L 735.061951 446 C 753.484619 445.526123 754.735046 445.368713 759 442.986908 C 761.664001 441.499176 764.812317 438.515503 766.716492 435.674103 C 768.485535 433.034241 770.231262 429.284241 770.595886 427.340729 C 770.960449 425.397217 770.724121 422.022522 770.070618 419.84137 C 769.417114 417.660248 767.221436 414.033325 765.191223 411.781555 C 763.161072 409.529785 759.700012 406.867615 757.5 405.865662 C 754.107666 404.320679 750.746948 404.040588 735.377258 404.021973 C 717.254456 404 717.254456 404 716.739868 399.25 C 716.456848 396.637512 715.261108 389.100037 714.082642 382.5 C 712.904236 375.900024 710.568237 366 708.891663 360.5 C 707.215027 355 704.257385 346.450012 702.319153 341.5 C 700.380859 336.549988 696.499573 328.225037 693.694031 323 C 688.593079 313.5 688.593079 313.5 688.270508 234.5 C 687.996277 167.357239 687.722839 154.884705 686.44873 151.400513 C 685.624207 149.145813 683.402771 145.494019 681.512268 143.285339 C 679.621704 141.076721 675.570801 138.083984 672.510132 136.634827 C 668.529785 134.750183 665.327087 134 661.261902 134 C 656.351929 134 652.88446 135.155029 635.783752 142.487183 C 624.896729 147.15509 607.447327 154.593567 597.007324 159.01709 C 586.567322 163.440552 570.032288 170.50116 560.262756 174.707275 C 555.816345 176.621582 550.723267 178.173157 546.625 179.421631 C 541.718567 180.916321 538.238037 181.976624 539 182.705017 C 558.966736 201.79187 576.474976 220.167053 591.716919 237.858459 L 538 211 L 469 186 L 371 177 L 291 193 L 223 240 L 153 323 L 130 413 L 149 500 L 216 577 L 287 620 L 323 639 L 330 681 L 330 693.620422 C 326.108459 696.032349 324 698.200439 324 700.172119 C 324 738.61084 324.201691 744.499207 325.614166 747.299683 C 326.501953 749.059814 328.414459 751.792297 329.864166 753.371765 C 331.313873 754.951294 333.850006 756.868591 335.5 757.632507 C 337.460541 758.540161 341.271912 758.931091 346.5 758.760742 C 353.707947 758.525818 355.044525 758.15271 360 754.99231 C 363.024994 753.062988 389.695435 735.412354 419.267639 715.768555 C 448.839844 696.124756 480.257446 675.262695 489.084534 669.408325 C 503.175354 660.062988 506.315308 658.417053 514.816833 655.919861 C 520.142578 654.355469 527.875 651.985535 532 650.653198 C 536.125 649.320923 543.674622 646.645874 548.776978 644.70874 C 553.879333 642.771606 562.654297 638.841736 568.276978 635.975708 C 573.899658 633.109741 583.224976 628.058594 589 624.750977 C 594.775024 621.443298 602.875 616.48645 607 613.735718 C 611.125 610.984985 619.190002 605.081665 624.922241 600.617188 C 630.65448 596.15271 637.729919 590.328369 640.645508 587.674133 C 644.737549 583.948853 645.723572 583.137085 647 582 C 647.975098 581.131348 647.924255 581.103821 647.879089 581.079346 C 647.830994 581.053345 647.789368 581.030823 649 580 C 650.457153 578.759277 650.844482 577.785828 655.050537 573.345703 C 658.096191 570.130615 665.250061 561.27179 670.94812 553.659546 C 676.646118 546.047241 681.886353 539.597107 682.593079 539.325928 C 683.299805 539.054688 687.505188 540.445984 691.938416 542.417603 C 696.371643 544.389282 704.16156 547.871948 709.24939 550.157043 C 715.622131 553.019165 719.899963 554.316895 723 554.328491 C 725.643188 554.338379 729.17865 553.478699 731.568237 552.245056 C 733.805725 551.089966 737.24469 548.364685 739.210388 546.188904 C 741.602539 543.541016 743.140259 540.573242 743.860779 537.213501 C 744.693604 533.3302 744.623352 530.983704 743.550354 526.847046 C 742.569519 523.065674 741.224243 520.715942 738.956116 518.822388 C 737.192139 517.349609 733.892883 515.230347 731.624451 514.112793 C 729.356018 512.995239 724.799988 510.899109 721.5 509.454742 C 718.200012 508.010376 712.663635 505.941711 709.196899 504.857727 C 705.700684 503.764496 702.616272 502.163635 702.27063 501.262817 C 701.927856 500.369629 702.58374 496.907593 703.728149 493.569397 C 704.872559 490.231232 706.985779 483.823761 708.424255 479.330536 Z M 659.391907 495.314514 C 676.125977 464.117889 682.98053 428.21524 674.563293 386.822601 L 669 461 L 659.391907 495.314514 Z"/>
        <path id="Form-Kopie-2-Kopie" fill="#ffffff" fill-rule="evenodd" stroke="none" d="M 696.623901 431.5 C 693.071045 450.612335 690.862671 459.837341 689.424255 464.330536 C 687.985779 468.823761 685.872559 475.231232 684.728149 478.569397 C 683.58374 481.907593 682.927856 485.369629 683.27063 486.262817 C 683.616272 487.163635 686.700684 488.764496 690.196899 489.857727 C 693.663635 490.941711 699.200012 493.010376 702.5 494.454742 C 705.799988 495.899109 710.356018 497.995209 712.624451 499.112793 C 714.892883 500.230347 718.192139 502.34964 719.956116 503.822357 C 722.224243 505.715942 723.569519 508.065674 724.550354 511.847046 C 725.623352 515.983704 725.693604 518.3302 724.860779 522.213501 C 724.140259 525.573242 722.602539 528.541016 720.210388 531.188904 C 718.24469 533.364685 714.805725 536.089966 712.568237 537.245056 C 710.17865 538.478699 706.643188 539.338379 704 539.328491 C 700.899963 539.316895 696.622131 538.019165 690.24939 535.157043 C 685.16156 532.871948 677.371643 529.389282 672.938416 527.417603 C 668.505188 525.445984 664.299805 524.054688 663.593079 524.325928 C 662.886353 524.597107 657.646118 531.047241 651.94812 538.659546 C 646.250061 546.27179 639.096191 555.130615 636.050537 558.345703 C 631.844482 562.785828 631.457153 563.759277 630 565 C 627.652466 566.998901 630.013489 565.206421 628 567 C 626.723572 568.137085 625.737549 568.948853 621.645508 572.674133 C 618.729919 575.328369 611.65448 581.15271 605.922241 585.617188 C 600.190002 590.081665 592.125 595.984985 588 598.735718 C 583.875 601.48645 575.775024 606.443298 570 609.750977 C 564.224976 613.058594 554.899658 618.109741 549.276978 620.975708 C 543.654297 623.841736 534.879333 627.771606 529.776978 629.70874 C 524.674622 631.645874 517.125 634.320923 513 635.653198 C 508.875 636.985535 501.142578 639.355469 495.816833 640.919861 C 487.315308 643.417053 484.175354 645.062988 470.084534 654.408325 C 461.257446 660.262695 429.839844 681.124756 400.267639 700.768555 C 370.695435 720.412354 344.024994 738.062988 341 739.99231 C 336.044525 743.15271 334.707947 743.525818 327.5 743.760742 C 322.271912 743.931091 318.460541 743.540161 316.5 742.632507 C 314.850006 741.868591 312.313873 739.951294 310.864166 738.371765 C 309.414459 736.792297 307.501953 734.059814 306.614166 732.299683 C 305.201691 729.499207 305 723.61084 305 685.172119 C 305 651.240723 304.715546 641.012939 303.75 640.225464 C 303.0625 639.664734 298.899994 638.0802 294.5 636.704224 C 290.100006 635.328247 282.450012 632.668823 277.5 630.794434 C 272.549988 628.920044 261.755096 624.127197 253.511322 620.143677 C 245.267548 616.160095 234.017578 610.147095 228.511353 606.781372 C 223.005096 603.415649 214.166626 597.584229 208.8703 593.82251 C 203.573944 590.060913 194.262054 582.70459 188.177216 577.47522 C 182.092377 572.24585 173.51297 564.037109 169.111847 559.233643 C 164.710754 554.430176 157.887024 546.450012 153.947968 541.5 C 150.008911 536.550049 145.596695 530.575073 144.143036 528.222412 C 141.969589 524.704773 141.055817 524.016602 139 524.349121 C 137.625 524.571533 129.41687 527.958984 120.759705 531.87677 C 107.915939 537.689209 104.09021 539 99.969879 539 C 96.963837 539 93.418854 538.227661 91.210159 537.091553 C 89.169571 536.041992 86.30661 533.904419 84.848022 532.341553 C 83.389435 530.778687 81.440598 527.25 80.517288 524.5 C 79.448593 521.317017 79.059204 518.103882 79.44577 515.658203 C 79.779739 513.545288 80.935135 510.08728 82.013321 507.973877 C 83.468155 505.122162 85.552063 503.290039 90.094864 500.868744 C 93.461533 499.074341 98.754959 496.533081 101.858047 495.221497 C 104.961121 493.909943 110.180511 491.745544 113.456696 490.411713 C 116.73288 489.077911 119.786087 487.613922 120.241608 487.158386 C 120.697144 486.70285 119.285355 481.193359 117.104309 474.91507 C 114.923279 468.63678 111.930115 458.549988 110.45285 452.5 C 108.975601 446.450012 107.542068 439.178802 107.267242 436.341797 C 106.767563 431.183594 106.767563 431.183594 88.103943 430.841797 C 70.479874 430.519043 69.168457 430.360016 64.559616 427.986694 C 61.330521 426.323853 58.515686 423.785889 56.241425 420.486694 C 53.024918 415.820587 52.827896 415.075012 53.176758 408.889648 C 53.477081 403.564941 54.085251 401.577026 56.303665 398.668518 C 57.818405 396.682617 60.695938 393.807251 62.698181 392.27887 C 66.338623 389.5 66.338623 389.5 85.915543 389.170471 C 96.682846 388.989197 105.66478 388.668579 105.875397 388.457947 C 106.085999 388.247375 106.613342 384.795654 107.047256 380.787537 C 107.481186 376.779419 109.1922 367.650024 110.849548 360.5 C 112.506897 353.350037 115.228897 343.450012 116.898453 338.5 C 118.568008 333.549988 121.469788 325.900024 123.346832 321.5 C 125.223877 317.100037 128.612381 309.900024 130.876816 305.5 C 134.993988 297.5 134.993988 297.5 135.246994 218 C 135.5 138.5 135.5 138.5 138.164886 134 C 139.630569 131.525024 142.330582 128.085999 144.164886 126.357788 C 145.999207 124.629578 149.488403 122.219238 151.91864 121.001465 C 154.845276 119.534912 158.239746 118.769409 161.971619 118.734253 C 166.626129 118.690369 169.596771 119.557617 179.053009 123.721008 C 185.348846 126.49292 196.800018 131.461121 204.5 134.761414 C 212.200012 138.061646 224.125 143.132629 231 146.030212 C 237.875 148.927795 247.325012 152.970642 252 155.014404 C 256.674988 157.058105 265.715881 161.01532 272.09082 163.808228 C 283.681671 168.886169 283.681671 168.886169 296.59082 164.494141 C 303.690887 162.078552 314.899994 158.722656 321.5 157.036621 C 328.100006 155.350525 340.024994 152.872009 348 151.528687 C 355.975006 150.185364 367.899994 148.621521 374.5 148.053467 C 381.100006 147.485413 392.799988 147.017822 400.5 147.014404 C 408.200012 147.010986 421.475037 147.668945 430 148.476563 C 438.525024 149.28418 450.900024 150.883606 457.5 152.030884 C 464.100037 153.178162 474.674988 155.427185 481 157.028687 C 487.325012 158.630188 497.900024 161.766357 504.5 163.997864 C 512.150818 166.584717 517.768494 167.928345 520 167.705017 C 521.924988 167.51239 531.493225 163.913391 541.262756 159.707275 C 551.032288 155.50116 567.567322 148.440552 578.007324 144.01709 C 588.447327 139.593567 605.896729 132.15509 616.783752 127.487183 C 633.88446 120.155029 637.351929 119 642.261902 119 C 646.327087 119 649.529785 119.750183 653.510132 121.634827 C 656.570801 123.083984 660.621704 126.076721 662.512268 128.285339 C 664.402771 130.494019 666.624207 134.145813 667.44873 136.400513 C 668.722839 139.884705 668.996277 152.357239 669.270508 219.5 C 669.593079 298.5 669.593079 298.5 674.694031 308 C 677.499573 313.225037 681.380859 321.549988 683.319153 326.5 C 685.257385 331.450012 688.215027 340 689.891663 345.5 C 691.568237 351 693.904236 360.900024 695.082642 367.5 C 696.261108 374.100037 697.456848 381.637512 697.739868 384.25 C 698.254456 389 698.254456 389 716.377258 389.021973 C 731.746948 389.040588 735.107666 389.320679 738.5 390.865662 C 740.700012 391.867615 744.161072 394.529785 746.191223 396.781555 C 748.221436 399.033325 750.417114 402.660248 751.070618 404.84137 C 751.724121 407.022522 751.960449 410.397217 751.595886 412.340729 C 751.231262 414.284241 749.485535 418.034241 747.716492 420.674103 C 745.812317 423.515503 742.664001 426.499176 740 427.986908 C 735.735046 430.368713 734.484619 430.526123 716.061951 431 L 696.623901 431.5 Z M 148.723816 389 C 203.751099 389 209.63147 389.26886 212.845062 390.554688 C 214.982117 391.40979 217.892334 393.322266 219.312256 394.804688 C 220.732178 396.287109 222.592773 399.173035 223.44696 401.217896 C 224.301147 403.262726 225 407.104858 225 409.755981 C 225 412.769989 224.156891 416.243164 222.75 419.02475 C 221.435577 421.623505 218.697906 424.726257 216.166107 426.486633 C 211.832184 429.5 211.832184 429.5 181.166107 429.811798 C 164.299744 429.983276 150.10025 430.518036 149.611664 431.000122 C 149.094513 431.510406 149.408661 435.62262 150.363495 440.841675 C 151.265594 445.77243 153.423157 453.787659 155.158112 458.65332 C 156.893066 463.519012 158.804749 468.028534 159.406281 468.67453 C 160.235657 469.565155 162.675293 469.001404 169.5 466.34201 C 174.450012 464.413116 181.200012 461.784882 184.5 460.501465 C 187.800018 459.218048 195.210083 456.282532 200.966827 453.978119 C 209.738037 450.467041 212.26944 449.857605 216.592865 450.216156 C 219.43042 450.451447 224.251404 451.866821 227.306213 453.361389 C 231.976746 455.646484 233.269196 456.8992 235.430176 461.235748 C 236.996033 464.377991 238 468.078278 238 470.707245 C 238 473.080261 237.026855 477.092041 235.837494 479.622345 C 234.648102 482.152649 232.03183 485.410248 230.02356 486.86145 C 228.015259 488.312653 224.150909 490.471741 221.436066 491.659393 C 218.721222 492.847076 213.800018 494.709106 210.5 495.797241 C 207.200012 496.885376 201.575012 498.910706 198 500.298004 C 194.425018 501.685272 189.362518 503.744751 186.75 504.874634 C 183.586456 506.242798 182 507.53418 182 508.74115 C 182 509.737854 184.84726 514.141357 188.327209 518.526672 C 191.807159 522.911987 198.894684 530.625916 204.077209 535.668701 C 209.259735 540.711487 217.100006 547.82373 221.5 551.473633 C 225.899994 555.123535 233.774994 560.955444 239 564.43335 C 244.225006 567.911316 251.424988 572.387939 255 574.381409 C 258.575012 576.374878 264.863098 579.633423 268.973541 581.622559 C 273.084015 583.611694 279.834015 586.695557 283.973541 588.475708 C 288.113098 590.255737 295.549988 593.095642 300.5 594.78656 C 305.450012 596.477478 314.450012 599.28833 320.5 601.032837 C 326.884338 602.873779 333.494873 605.525513 336.25415 607.352356 C 338.868927 609.083557 342.468933 612.525024 344.25415 615 C 347.5 619.5 347.5 619.5 347.549377 649.5 C 347.576538 666 347.689026 680.31781 347.799377 681.317383 C 347.953522 682.713684 348.521301 682.975891 350.25 682.449097 C 351.487488 682.071899 363.140015 674.769836 376.14447 666.222168 C 389.148926 657.674561 414.880981 640.713135 433.326843 628.530029 C 466.864746 606.379028 466.864746 606.379028 482.682373 601.595886 C 491.38208 598.965149 502.775024 595.255432 508 593.352112 C 513.224976 591.44873 524.700012 586.342712 533.5 582.005371 C 542.299988 577.667969 553.397888 571.660034 558.161987 568.654358 C 562.926086 565.648682 571.186646 559.924805 576.51886 555.934448 C 581.851013 551.944214 591.404053 543.689697 597.747864 537.591187 C 604.091614 531.492676 612.255981 522.771423 615.890991 518.210632 C 619.52594 513.649841 622.63916 509.294556 622.809265 508.532104 C 622.995789 507.696045 621.210205 506.29715 618.309265 505.006683 C 615.664185 503.830048 610.125 501.499695 606 499.828125 C 601.875 498.156555 596.242554 495.99408 593.483459 495.022675 C 590.724365 494.051239 586.018799 492.203308 583.026672 490.916138 C 580.034546 489.628967 576.033875 487.212616 574.13623 485.546478 C 572.238647 483.880341 569.866577 480.713287 568.86499 478.508575 C 567.863403 476.303864 567.046692 472.475006 567.05011 470 C 567.053833 467.302643 567.971924 463.697357 569.341919 461 C 570.985107 457.764648 573.123718 455.598053 576.951538 453.290619 C 579.879761 451.525452 584.305603 449.776794 586.786621 449.404755 C 590.537964 448.842194 592.661987 449.277527 599.398804 451.989685 C 603.854492 453.783447 610.545593 456.525879 614.268005 458.083923 C 617.990417 459.641998 624.515381 462.32663 628.768005 464.049805 C 633.020569 465.772949 638.032715 467.842896 639.906067 468.649658 C 642.708374 469.856476 643.530273 469.884583 644.543091 468.808228 C 645.220154 468.088715 647.210327 462.815582 648.96582 457.090179 C 650.721252 451.364777 652.804993 443.296234 653.596375 439.160095 C 654.752563 433.117432 654.786194 431.48172 653.767639 430.835236 C 653.070435 430.3927 640.335571 430.023743 625.467957 430.01532 C 605.44873 430.003967 597.017334 429.632965 592.967957 428.585236 C 588.877258 427.526794 586.69165 426.237274 584.290649 423.465637 C 582.525513 421.427979 580.349609 417.557861 579.455261 414.865387 C 578.369019 411.595001 578.055481 408.631104 578.510681 405.936798 C 578.885437 403.718567 580.632263 400.015442 582.392517 397.707581 C 584.152832 395.399719 587.37207 392.503784 589.546509 391.272217 C 593.393921 389.093018 594.30481 389.032043 623.5 389.00116 C 640 388.983704 654.10498 388.585938 654.844421 388.11731 C 655.963562 387.40802 655.912537 385.608948 654.539917 377.382629 C 653.632996 371.947205 651.123291 361.991638 648.96283 355.259155 C 646.802368 348.526733 642.668823 337.951721 639.777222 331.759155 C 636.885681 325.56665 633.689087 319.150024 632.673706 317.5 C 631.658386 315.850037 628.894775 311.477051 626.532349 307.782288 C 624.169983 304.087524 619.840637 297.787476 616.91156 293.782288 C 613.982483 289.777039 608.004028 282.325684 603.626038 277.223694 C 599.248108 272.121643 591.128784 263.991455 585.583069 259.156494 C 580.037354 254.321533 572.575012 248.127563 569 245.39209 C 565.424988 242.656616 559.167236 238.186829 555.093872 235.459229 C 551.020447 232.731689 545.620483 229.257141 543.093872 227.738098 C 540.567261 226.219055 532.200012 221.867065 524.5 218.067078 C 516.799988 214.267029 507.575012 209.955933 504 208.486816 C 500.424988 207.017761 493.900024 204.691406 489.5 203.3172 C 485.100037 201.942993 478.923828 200.141052 475.775208 199.312805 C 472.626587 198.484558 465.65155 196.712036 460.275208 195.373901 C 454.898865 194.035706 446 192.508606 440.5 191.980347 C 435 191.452087 424.381592 190.559021 416.903564 189.995728 C 408.05072 189.328918 399.154053 189.300293 391.403534 189.913635 C 384.856598 190.431763 374.774994 191.120178 369 191.443542 C 363.225006 191.766907 354.899994 192.927673 350.5 194.023132 C 346.100006 195.11853 339.125 196.648071 335 197.422058 C 330.875 198.195984 325.024994 199.728699 322 200.828003 C 318.975006 201.927307 314.25 203.494629 311.5 204.310913 C 308.75 205.127197 302.674988 207.418823 298 209.403381 C 293.325012 211.387939 283.478394 216.013611 276.118652 219.682617 C 268.758911 223.351685 257.804169 229.657166 251.77478 233.694763 C 245.745392 237.732361 236.516937 244.490601 231.26712 248.713074 C 226.017334 252.935547 217.161285 260.914917 211.587067 266.445129 C 206.012817 271.975281 198.407288 280.325012 194.685852 285 C 190.964417 289.674988 185.088623 297.775024 181.628571 303 C 178.168488 308.225037 173.176971 316.480042 170.536316 321.344482 C 167.89563 326.208923 164.204254 333.818665 162.333221 338.255005 C 160.462189 342.691406 157.539978 350.411438 155.839417 355.410583 C 154.138855 360.40979 152.147552 367.031677 151.414307 370.125854 C 150.681061 373.220093 149.775757 378.732605 149.402496 382.375854 L 148.723816 389 Z M 357.5 511.227112 C 354.75 511.514465 350.25 511.41394 347.5 511.003784 C 344.75 510.593506 339.420563 509.301575 335.656799 508.13269 C 331.893036 506.963837 326.194183 504.390717 322.992676 502.414612 C 319.791168 500.438538 315.161499 496.895569 312.704498 494.541351 C 310.247528 492.187134 306.993652 488.138916 305.473694 485.545319 C 303.226959 481.711578 302.698639 479.574249 302.648682 474.116821 C 302.600037 468.805328 303.0625 466.634918 304.864105 463.719879 C 306.116394 461.693634 308.472198 459.087891 310.099213 457.929352 C 311.726227 456.770813 314.696045 455.370483 316.698792 454.817505 C 318.701569 454.264496 322.681732 454.104614 325.54361 454.462189 C 329.946289 455.012268 331.801178 455.988495 337.597382 460.806152 C 341.365112 463.937775 345.80954 467.028259 347.473877 467.67392 C 349.138245 468.31958 352.524994 468.872192 355 468.901947 C 357.475006 468.931732 361.361664 468.110718 363.636993 467.077515 C 365.912354 466.044312 369.578613 463.568634 371.78421 461.575989 C 373.989838 459.583344 376.515686 456.433075 377.397217 454.575378 C 378.565002 452.114441 379 448.219757 379 440.225037 C 379 429.252319 379 429.252319 373.584442 423.182983 C 369.331116 418.416199 367.907562 415.946045 366.951324 411.673126 C 366.281677 408.680817 366.019989 404.717743 366.369812 402.866272 C 366.719604 401.014832 367.866211 398.089661 368.917755 396.365845 C 369.96933 394.642029 372.39032 392.041321 374.297699 390.586487 C 376.556183 388.863892 379.811981 387.642395 383.632843 387.084167 C 386.859772 386.612732 396.25 386.312378 404.5 386.416687 C 412.75 386.521057 421.349243 386.915161 423.609375 387.292542 C 426.298767 387.741577 429.179443 389.278137 431.945984 391.739319 C 435.231812 394.662537 436.491028 396.724854 437.600342 401 C 438.736145 405.377258 438.797974 407.610474 437.903442 411.939911 C 436.979065 416.413422 435.821899 418.383575 431.389709 423.030304 C 426 428.680817 426 428.680817 426 441.90564 C 426 455.130432 426 455.130432 431.282043 460.412445 C 435.018799 464.149261 438.125183 466.212982 441.900452 467.466919 C 445.486023 468.657867 448.675415 469.042206 451.621643 468.638397 C 454.033264 468.307831 457.692444 467.167114 459.753235 466.103424 C 461.813965 465.039764 465.288452 462.321503 467.474304 460.062897 C 469.912842 457.543182 473.004211 455.536926 475.474304 454.871033 C 477.688416 454.274139 481.924561 454.07019 484.887939 454.417847 C 487.851318 454.765472 491.59436 455.826172 493.20575 456.774933 C 494.817139 457.723724 497.434387 460.458405 499.021851 462.852051 C 500.609253 465.245667 502.194275 469.112885 502.544128 471.445862 C 502.893982 473.77887 502.735779 477.297363 502.192566 479.264771 C 501.649353 481.232178 499.864014 484.789948 498.225159 487.170929 C 496.586365 489.55191 493.046204 493.556458 490.358154 496.069916 C 487.670105 498.583344 483.340515 501.888245 480.736877 503.414063 C 478.133179 504.939911 472.067932 507.270996 467.258484 508.594177 C 461.80249 510.095276 455.826172 511 451.366516 511 C 446.932373 511 440.482666 510.029236 434.377075 508.442871 C 427.728149 506.715332 422.420715 504.568695 418.017639 501.826172 C 414.432922 499.593414 409.577271 495.915375 407.227295 493.652771 C 404.058777 490.602142 402.595154 489.792358 401.564056 490.51947 C 400.799316 491.058746 397.823059 493.414642 394.950165 495.754791 C 392.077271 498.09491 387.42572 501.319397 384.613373 502.920288 C 381.801025 504.521149 375.674988 506.927551 371 508.267822 C 366.325012 509.608032 360.25 510.939758 357.5 511.227112 Z M 295.278503 397.999207 C 286.523895 397.998535 284.84613 397.689087 279.255157 395.044128 C 275.820526 393.41925 270.754089 389.97937 267.99646 387.399902 C 264.98822 384.58606 261.694275 380.09314 259.762024 376.168152 C 256.894501 370.343384 256.539185 368.676819 256.520721 360.96405 C 256.506805 355.14093 257.103241 350.519043 258.340485 346.862549 C 259.352753 343.870911 261.737976 339.27771 263.640991 336.655457 C 265.544006 334.033142 269.134552 330.450378 271.619995 328.693787 C 274.105438 326.937195 278.470215 324.692932 281.319489 323.706543 C 284.168762 322.720154 289.200012 321.66571 292.5 321.363342 C 297.318054 320.921875 300.170258 321.347229 306.978882 323.522583 C 314.463989 325.914124 316.195831 326.950562 321.755371 332.365845 C 326.474213 336.962219 328.718842 340.129517 330.708984 345 C 332.197357 348.642517 333.553284 354.208862 333.793365 357.661804 C 334.108551 362.19519 333.654816 365.527344 332.076416 370.270386 C 330.896484 373.816101 328.675476 378.693298 327.140869 381.108582 C 325.606262 383.523865 322.677277 386.965881 320.63205 388.757446 C 318.586792 390.549072 314.245728 393.361572 310.985229 395.007446 C 305.605927 397.722961 304.151642 397.999939 295.278503 397.999207 Z M 510.774963 397.976257 C 503.338867 397.957275 500.355774 397.481995 495.728638 395.579224 C 492.554382 394.273926 487.88147 391.504944 485.344421 389.426025 C 482.807312 387.347046 479.432434 383.597656 477.844666 381.093994 C 476.256897 378.590332 474.17981 374.073792 473.228882 371.05719 C 472.278015 368.040649 471.520569 363.081238 471.545654 360.036255 C 471.570801 356.991333 472.388794 351.917358 473.363525 348.760803 C 474.338196 345.604187 476.574585 340.933533 478.333252 338.381592 C 480.091919 335.82959 484.018188 331.77887 487.058289 329.380005 C 491.405029 325.950134 494.426636 324.542542 501.20343 322.790649 C 509.046387 320.763184 510.390991 320.677063 516.160522 321.833069 C 519.647217 322.531677 524.765015 324.190369 527.533325 325.519165 C 530.301636 326.8479 534.747803 330.087219 537.413574 332.717529 C 540.125732 335.393677 543.634521 340.362793 545.380249 344 C 548.161865 349.795471 548.5 351.477112 548.5 359.514771 C 548.5 367.164673 548.07373 369.532532 545.684448 375.154297 C 544.068787 378.95575 541.002808 383.726624 538.490234 386.348877 C 536.079224 388.865173 530.952148 392.509705 527.08075 394.459351 C 520.521301 397.762634 519.42804 397.998413 510.774963 397.976257 Z"/>
    </g>
</svg>
