<?xml version="1.0" encoding="UTF-8"?>
<svg fill="currentColor" stroke="currentColor" width="699" height="626" viewBox="0 0 699 626" xmlns="http://www.w3.org/2000/svg" xmlns:xlink="http://www.w3.org/1999/xlink">
  <path d="M 643.623901 313.5 C 640.071045 332.612335 637.862671 341.837341 636.424255 346.330536 C 634.985779 350.823761 632.872559 357.231232 631.728149 360.569397 C 630.58374 363.907593 629.927856 367.369629 630.27063 368.262817 C 630.616272 369.163635 633.700684 370.764496 637.196899 371.857727 C 640.663635 372.941711 646.200012 375.010376 649.5 376.454742 C 652.799988 377.899109 657.356018 379.995209 659.624451 381.112793 C 661.892883 382.230347 665.192139 384.34964 666.956116 385.822357 C 669.224243 387.715942 670.569519 390.065674 671.550354 393.847015 C 672.623352 397.983704 672.693604 400.330231 671.860779 404.213501 C 671.140259 407.573273 669.602539 410.541016 667.210388 413.188904 C 665.24469 415.364685 661.805725 418.089935 659.568237 419.245056 C 657.17865 420.478699 653.643188 421.338348 651 421.328491 C 647.899963 421.316895 643.622131 420.019135 637.24939 417.157043 C 632.16156 414.871979 624.371643 411.389252 619.938416 409.417603 C 615.505188 407.445984 611.299805 406.054718 610.593079 406.325928 C 609.886353 406.597107 604.646118 413.047241 598.94812 420.659515 C 593.250061 428.27179 586.096191 437.130585 583.050537 440.345703 C 578.844482 444.785828 578.457153 445.759247 577 447 C 574.652466 448.998901 577.013489 447.20639 575 449 C 573.723572 450.137054 572.737549 450.948822 568.645508 454.674133 C 565.729919 457.328369 558.65448 463.15274 552.922241 467.617218 C 547.190002 472.081665 539.125 477.984985 535 480.735748 C 530.875 483.486481 522.775024 488.443298 517 491.750946 C 511.224976 495.058563 501.899658 500.109741 496.276978 502.975739 C 490.654297 505.841736 481.879333 509.771606 476.776978 511.70874 C 471.674622 513.645874 464.125 516.320923 460 517.653198 C 455.875 518.985535 448.142578 521.355469 442.816833 522.919861 C 434.315308 525.417053 431.175354 527.062988 417.084534 536.408325 C 408.257446 542.262695 376.839844 563.124756 347.267639 582.768555 C 317.695435 602.412354 291.024994 620.062988 288 621.99231 C 283.044525 625.15271 281.707947 625.525818 274.5 625.760742 C 269.271912 625.931091 265.460541 625.540161 263.5 624.632507 C 261.850006 623.868591 259.313873 621.951294 257.864166 620.371765 C 256.414459 618.792297 254.501953 616.059814 253.614166 614.299683 C 252.201691 611.499207 252 605.61084 252 567.172119 C 252 533.240723 251.715546 523.012939 250.75 522.225464 C 250.0625 521.664734 245.899994 520.0802 241.5 518.704224 C 237.100006 517.328247 229.450012 514.668823 224.5 512.794434 C 219.549988 510.920044 208.755096 506.127167 200.511322 502.143646 C 192.267548 498.160095 181.017578 492.147064 175.511353 488.781372 C 170.005096 485.415649 161.166626 479.584198 155.8703 475.82254 C 150.573944 472.060913 141.262054 464.70459 135.177216 459.47522 C 129.092377 454.245819 120.51297 446.037109 116.111847 441.233612 C 111.710754 436.430145 104.887024 428.450012 100.947968 423.5 C 97.008911 418.550018 92.596695 412.575073 91.143036 410.222382 C 88.969589 406.704773 88.055817 406.016602 86 406.349152 C 84.625 406.571564 76.41687 409.958984 67.759705 413.87677 C 54.915939 419.689209 51.09021 421 46.969879 421 C 43.963837 421 40.418854 420.227692 38.210159 419.091583 C 36.169571 418.041962 33.30661 415.904449 31.848022 414.341583 C 30.389435 412.778717 28.440598 409.25 27.517288 406.5 C 26.448593 403.317017 26.059204 400.103912 26.44577 397.658234 C 26.779739 395.545258 27.935135 392.087311 29.013321 389.973907 C 30.468155 387.122162 32.552063 385.290039 37.094864 382.868744 C 40.461533 381.074341 45.754959 378.533081 48.858047 377.221497 C 51.961121 375.909943 57.180511 373.745544 60.456696 372.411713 C 63.73288 371.077911 66.786087 369.613922 67.241608 369.158386 C 67.697144 368.70285 66.285355 363.193359 64.104309 356.91507 C 61.923279 350.63678 58.930115 340.549988 57.45285 334.5 C 55.975601 328.450012 54.542068 321.178802 54.267242 318.341797 C 53.767563 313.183594 53.767563 313.183594 35.103943 312.841797 C 17.479874 312.519043 16.168457 312.360016 11.559616 309.986694 C 8.330521 308.323853 5.515686 305.785889 3.241425 302.486694 C 0.024918 297.820587 -0.172104 297.075012 0.176758 290.889648 C 0.477081 285.564941 1.085251 283.577026 3.303665 280.668518 C 4.818405 278.682617 7.695938 275.807251 9.698181 274.27887 C 13.338623 271.5 13.338623 271.5 32.915543 271.170471 C 43.682846 270.989197 52.66478 270.668579 52.875397 270.457947 C 53.085999 270.247375 53.613342 266.795654 54.047256 262.787537 C 54.481186 258.779419 56.1922 249.650024 57.849548 242.5 C 59.506897 235.350037 62.228897 225.450012 63.898453 220.5 C 65.568008 215.549988 68.469788 207.900024 70.346832 203.5 C 72.223877 199.100037 75.612381 191.900024 77.876816 187.5 C 81.993988 179.5 81.993988 179.5 82.246994 100 C 82.5 20.5 82.5 20.5 85.164886 16 C 86.630569 13.525024 89.330582 10.085999 91.164886 8.357788 C 92.999207 6.629578 96.488403 4.219238 98.91864 3.001465 C 101.845276 1.534912 105.239746 0.769409 108.971619 0.734253 C 113.626129 0.690369 116.596771 1.557617 126.053009 5.721008 C 132.348846 8.49292 143.800018 13.461121 151.5 16.761414 C 159.200012 20.061646 171.125 25.132629 178 28.030212 C 184.875 30.927795 194.325012 34.970642 199 37.014404 C 203.674988 39.058105 212.715881 43.01532 219.09082 45.808228 C 230.681671 50.886169 230.681671 50.886169 243.59082 46.494141 C 250.690887 44.078552 261.899994 40.722656 268.5 39.036621 C 275.100006 37.350525 287.024994 34.872009 295 33.528687 C 302.975006 32.185364 314.899994 30.621521 321.5 30.053467 C 328.100006 29.485413 339.799988 29.017822 347.5 29.014404 C 355.200012 29.010986 368.475037 29.668945 377 30.476563 C 385.525024 31.28418 397.900024 32.883606 404.5 34.030884 C 411.100037 35.178162 421.674988 37.427185 428 39.028687 C 434.325012 40.630188 444.900024 43.766357 451.5 45.997864 C 459.150818 48.584717 464.768494 49.928345 467 49.705017 C 468.924988 49.51239 478.493225 45.913391 488.262756 41.707275 C 498.032288 37.50116 514.567322 30.440552 525.007324 26.01709 C 535.447327 21.593567 552.896729 14.15509 563.783752 9.487183 C 580.88446 2.155029 584.351929 1 589.261902 1 C 593.327087 1 596.529785 1.750183 600.510132 3.634827 C 603.570801 5.083984 607.621704 8.076721 609.512268 10.285339 C 611.402771 12.494019 613.624207 16.145813 614.44873 18.400513 C 615.722839 21.884705 615.996277 34.357239 616.270508 101.5 C 616.593079 180.5 616.593079 180.5 621.694031 190 C 624.499573 195.225037 628.380859 203.549988 630.319153 208.5 C 632.257385 213.450012 635.215027 222 636.891663 227.5 C 638.568237 233 640.904236 242.900024 642.082642 249.5 C 643.261108 256.100037 644.456848 263.637512 644.739868 266.25 C 645.254456 271 645.254456 271 663.377258 271.021973 C 678.746948 271.040588 682.107666 271.320679 685.5 272.865662 C 687.700012 273.867615 691.161072 276.529785 693.191223 278.781555 C 695.221436 281.033325 697.417114 284.660248 698.070618 286.84137 C 698.724121 289.022522 698.960449 292.397217 698.595886 294.340729 C 698.231262 296.284241 696.485535 300.034241 694.716492 302.674103 C 692.812317 305.515503 689.664001 308.499176 687 309.986908 C 682.735046 312.368713 681.484619 312.526123 663.061951 313 L 643.623901 313.5 Z M 95.723816 271 C 150.751099 271 156.63147 271.26886 159.845062 272.554688 C 161.982117 273.40979 164.892334 275.322266 166.312256 276.804688 C 167.732178 278.287109 169.592773 281.173035 170.44696 283.217896 C 171.301147 285.262726 172 289.104858 172 291.755981 C 172 294.769989 171.156891 298.243164 169.75 301.02475 C 168.435577 303.623505 165.697906 306.726257 163.166107 308.486633 C 158.832184 311.5 158.832184 311.5 128.166107 311.811798 C 111.299744 311.983276 97.10025 312.518036 96.611664 313.000122 C 96.094513 313.510406 96.408661 317.62262 97.363495 322.841675 C 98.265594 327.77243 100.423157 335.787659 102.158112 340.65332 C 103.893066 345.519012 105.804749 350.028534 106.406281 350.67453 C 107.235657 351.565155 109.675293 351.001404 116.5 348.34201 C 121.450012 346.413116 128.200012 343.784882 131.5 342.501465 C 134.800018 341.218048 142.210083 338.282532 147.966827 335.978119 C 156.738037 332.467041 159.26944 331.857605 163.592865 332.216156 C 166.43042 332.451447 171.251404 333.866821 174.306213 335.361389 C 178.976746 337.646484 180.269196 338.8992 182.430176 343.235748 C 183.996033 346.377991 185 350.078278 185 352.707245 C 185 355.080261 184.026855 359.092041 182.837494 361.622345 C 181.648102 364.152649 179.03183 367.410248 177.02356 368.86145 C 175.015259 370.312653 171.150909 372.471741 168.436066 373.659393 C 165.721222 374.847076 160.800018 376.709106 157.5 377.797241 C 154.200012 378.885376 148.575012 380.910706 145 382.298004 C 141.425018 383.685272 136.362518 385.744751 133.75 386.874634 C 130.586456 388.242798 129 389.53418 129 390.74115 C 129 391.737854 131.84726 396.141357 135.327209 400.526672 C 138.807159 404.912018 145.894684 412.625916 151.077209 417.668701 C 156.259735 422.711487 164.100006 429.8237 168.5 433.473602 C 172.899994 437.123535 180.774994 442.955444 186 446.43338 C 191.225006 449.911316 198.424988 454.387939 202 456.381409 C 205.575012 458.374878 211.863098 461.633392 215.973541 463.622559 C 220.084015 465.611694 226.834015 468.695587 230.973541 470.475677 C 235.113098 472.255737 242.549988 475.095642 247.5 476.78656 C 252.450012 478.477478 261.450012 481.2883 267.5 483.032837 C 273.884338 484.873779 280.494873 487.525482 283.25415 489.352356 C 285.868927 491.083557 289.468933 494.524994 291.25415 497 C 294.5 501.5 294.5 501.5 294.549377 531.5 C 294.576538 548 294.689026 562.31781 294.799377 563.317383 C 294.953522 564.713684 295.521301 564.975891 297.25 564.449097 C 298.487488 564.071899 310.140015 556.769836 323.14447 548.222168 C 336.148926 539.674561 361.880981 522.713135 380.326843 510.53006 C 413.864746 488.379059 413.864746 488.379059 429.682373 483.595886 C 438.38208 480.965149 449.775024 477.255432 455 475.352112 C 460.224976 473.448761 471.700012 468.342712 480.5 464.005341 C 489.299988 459.667969 500.397888 453.660034 505.161987 450.654358 C 509.926086 447.648712 518.186646 441.924774 523.51886 437.934479 C 528.851013 433.944214 538.404053 425.689728 544.747864 419.591187 C 551.091614 413.492676 559.255981 404.771423 562.890991 400.210632 C 566.52594 395.649841 569.63916 391.294525 569.809265 390.532135 C 569.995789 389.696045 568.210205 388.29715 565.309265 387.006683 C 562.664185 385.830048 557.125 383.499695 553 381.828125 C 548.875 380.156555 543.242554 377.99408 540.483459 377.022675 C 537.724365 376.051239 533.018799 374.203308 530.026672 372.916138 C 527.034546 371.628967 523.033875 369.212616 521.13623 367.546478 C 519.238647 365.880341 516.866577 362.713287 515.86499 360.508575 C 514.863403 358.303864 514.046692 354.475006 514.05011 352 C 514.053833 349.302643 514.971924 345.697357 516.341919 343 C 517.985107 339.764648 520.123718 337.598053 523.951538 335.290619 C 526.879761 333.525452 531.305603 331.776794 533.786621 331.404755 C 537.537964 330.842194 539.661987 331.277527 546.398804 333.989685 C 550.854492 335.783447 557.545593 338.525879 561.268005 340.083923 C 564.990417 341.641998 571.515381 344.32663 575.768005 346.049805 C 580.020569 347.772949 585.032715 349.842896 586.906067 350.649658 C 589.708374 351.856476 590.530273 351.884583 591.543091 350.808228 C 592.220154 350.088715 594.210327 344.815582 595.96582 339.090179 C 597.721252 333.364777 599.804993 325.296234 600.596375 321.160095 C 601.752563 315.117432 601.786194 313.48172 600.767639 312.835236 C 600.070435 312.3927 587.335571 312.023743 572.467957 312.01532 C 552.44873 312.003967 544.017334 311.632965 539.967957 310.585236 C 535.877258 309.526794 533.69165 308.237274 531.290649 305.465637 C 529.525513 303.427979 527.349609 299.557861 526.455261 296.865387 C 525.369019 293.595001 525.055481 290.631104 525.510681 287.936798 C 525.885437 285.718567 527.632263 282.015442 529.392517 279.707581 C 531.152832 277.399719 534.37207 274.503784 536.546509 273.272217 C 540.393921 271.093018 541.30481 271.032043 570.5 271.00116 C 587 270.983704 601.10498 270.585938 601.844421 270.11731 C 602.963562 269.40802 602.912537 267.608948 601.539917 259.382629 C 600.632996 253.947205 598.123291 243.991638 595.96283 237.259155 C 593.802368 230.526733 589.668823 219.951721 586.777222 213.759155 C 583.885681 207.56665 580.689087 201.150024 579.673706 199.5 C 578.658386 197.850037 575.894775 193.477051 573.532349 189.782288 C 571.169983 186.087524 566.840637 179.787476 563.91156 175.782288 C 560.982483 171.777039 555.004028 164.325684 550.626038 159.223694 C 546.248108 154.121643 538.128784 145.991455 532.583069 141.156494 C 527.037354 136.321533 519.575012 130.127563 516 127.39209 C 512.424988 124.656616 506.167236 120.186829 502.093872 117.459229 C 498.020447 114.731689 492.620483 111.257141 490.093872 109.738098 C 487.567261 108.219055 479.200012 103.867065 471.5 100.067078 C 463.799988 96.267029 454.575012 91.955933 451 90.486816 C 447.424988 89.017761 440.900024 86.691406 436.5 85.3172 C 432.100037 83.942993 425.923828 82.141052 422.775208 81.312805 C 419.626587 80.484558 412.65155 78.712036 407.275208 77.373901 C 401.898865 76.035706 393 74.508606 387.5 73.980347 C 382 73.452087 371.381592 72.559021 363.903564 71.995728 C 355.05072 71.328918 346.154053 71.300293 338.403534 71.913635 C 331.856598 72.431763 321.774994 73.120178 316 73.443542 C 310.225006 73.766907 301.899994 74.927673 297.5 76.023132 C 293.100006 77.11853 286.125 78.648071 282 79.422058 C 277.875 80.195984 272.024994 81.728699 269 82.828003 C 265.975006 83.927307 261.25 85.494629 258.5 86.310913 C 255.75 87.127197 249.674988 89.418823 245 91.403381 C 240.325012 93.387939 230.478394 98.013611 223.118652 101.682617 C 215.758911 105.351685 204.804169 111.657166 198.77478 115.694763 C 192.745392 119.732361 183.516937 126.490601 178.26712 130.713074 C 173.017334 134.935547 164.161285 142.914917 158.587067 148.445129 C 153.012817 153.975281 145.407288 162.325012 141.685852 167 C 137.964417 171.674988 132.088623 179.775024 128.628571 185 C 125.168488 190.225037 120.176971 198.480042 117.536316 203.344482 C 114.89563 208.208923 111.204254 215.818665 109.333221 220.255005 C 107.462189 224.691406 104.539978 232.411438 102.839417 237.410583 C 101.138855 242.40979 99.147552 249.031677 98.414307 252.125854 C 97.681061 255.220093 96.775757 260.732605 96.402496 264.375854 L 95.723816 271 Z M 304.5 393.227112 C 301.75 393.514465 297.25 393.41394 294.5 393.003754 C 291.75 392.593536 286.420563 391.301575 282.656799 390.132721 C 278.893036 388.963837 273.194183 386.390717 269.992676 384.414612 C 266.791168 382.438538 262.161499 378.895569 259.704498 376.541351 C 257.247528 374.187134 253.993652 370.138916 252.473694 367.545319 C 250.226959 363.711578 249.698639 361.574249 249.648682 356.116821 C 249.600037 350.805328 250.0625 348.634918 251.864105 345.719879 C 253.116394 343.693634 255.472198 341.087891 257.099213 339.929352 C 258.726227 338.770813 261.696045 337.370483 263.698792 336.817505 C 265.701569 336.264496 269.681732 336.104614 272.54361 336.462189 C 276.946289 337.012268 278.801178 337.988495 284.597382 342.806152 C 288.365112 345.937775 292.80954 349.028259 294.473877 349.67392 C 296.138245 350.31958 299.524994 350.872192 302 350.901947 C 304.475006 350.931732 308.361664 350.110718 310.636993 349.077515 C 312.912354 348.044312 316.578613 345.568634 318.78421 343.575989 C 320.989838 341.583344 323.515686 338.433075 324.397217 336.575378 C 325.565002 334.114441 326 330.219757 326 322.225037 C 326 311.252319 326 311.252319 320.584442 305.182983 C 316.331116 300.416199 314.907562 297.946045 313.951324 293.673126 C 313.281677 290.680817 313.019989 286.717743 313.369812 284.866272 C 313.719604 283.014832 314.866211 280.089661 315.917755 278.365845 C 316.96933 276.642029 319.39032 274.041321 321.297699 272.586487 C 323.556183 270.863892 326.811981 269.642395 330.632843 269.084167 C 333.859772 268.612732 343.25 268.312378 351.5 268.416687 C 359.75 268.521057 368.349243 268.915161 370.609375 269.292542 C 373.298767 269.741577 376.179443 271.278137 378.945984 273.739319 C 382.231812 276.662537 383.491028 278.724854 384.600342 283 C 385.736145 287.377258 385.797974 289.610474 384.903442 293.939911 C 383.979065 298.413422 382.821899 300.383575 378.389709 305.030304 C 373 310.680817 373 310.680817 373 323.90564 C 373 337.130432 373 337.130432 378.282043 342.412445 C 382.018799 346.149261 385.125183 348.212982 388.900452 349.466919 C 392.486023 350.657867 395.675415 351.042206 398.621643 350.638397 C 401.033264 350.307831 404.692444 349.167114 406.753235 348.103424 C 408.813965 347.039764 412.288452 344.321503 414.474304 342.062897 C 416.912842 339.543182 420.004211 337.536926 422.474304 336.871033 C 424.688416 336.274139 428.924561 336.07019 431.887939 336.417847 C 434.851318 336.765472 438.59436 337.826172 440.20575 338.774933 C 441.817139 339.723724 444.434387 342.458405 446.021851 344.852051 C 447.609253 347.245667 449.194275 351.112885 449.544128 353.445862 C 449.893982 355.77887 449.735779 359.297363 449.192566 361.264771 C 448.649353 363.232178 446.864014 366.789948 445.225159 369.170929 C 443.586365 371.55191 440.046204 375.556458 437.358154 378.069916 C 434.670105 380.583344 430.340515 383.888245 427.736877 385.414063 C 425.133179 386.939911 419.067932 389.270966 414.258484 390.594177 C 408.80249 392.095276 402.826172 393 398.366516 393 C 393.932373 393 387.482666 392.029236 381.377075 390.442871 C 374.728149 388.715332 369.420715 386.568695 365.017639 383.826172 C 361.432922 381.593414 356.577271 377.915375 354.227295 375.652771 C 351.058777 372.602142 349.595154 371.792358 348.564056 372.51947 C 347.799316 373.058746 344.823059 375.414642 341.950165 377.754791 C 339.077271 380.09491 334.42572 383.319397 331.613373 384.920288 C 328.801025 386.521149 322.674988 388.927551 318 390.267822 C 313.325012 391.608063 307.25 392.939758 304.5 393.227112 Z M 242.278503 279.999207 C 233.523895 279.998535 231.84613 279.689087 226.255157 277.044128 C 222.820526 275.41925 217.754089 271.97937 214.99646 269.399902 C 211.98822 266.58606 208.694275 262.09314 206.762024 258.168152 C 203.894501 252.343384 203.539185 250.676819 203.520721 242.96405 C 203.506805 237.14093 204.103241 232.519043 205.340485 228.862549 C 206.352753 225.870911 208.737976 221.27771 210.640991 218.655457 C 212.544006 216.033142 216.134552 212.450378 218.619995 210.693787 C 221.105438 208.937195 225.470215 206.692932 228.319489 205.706543 C 231.168762 204.720154 236.200012 203.66571 239.5 203.363342 C 244.318054 202.921875 247.170258 203.347229 253.978882 205.522583 C 261.463989 207.914124 263.195831 208.950562 268.755371 214.365845 C 273.474213 218.962219 275.718842 222.129517 277.708984 227 C 279.197357 230.642517 280.553284 236.208862 280.793365 239.661804 C 281.108551 244.19519 280.654816 247.527344 279.076416 252.270386 C 277.896484 255.816101 275.675476 260.693298 274.140869 263.108582 C 272.606262 265.523865 269.677277 268.965881 267.63205 270.757446 C 265.586792 272.549072 261.245728 275.361572 257.985229 277.007446 C 252.605927 279.722961 251.151642 279.999939 242.278503 279.999207 Z M 457.774963 279.976257 C 450.338867 279.957275 447.355774 279.481995 442.728638 277.579224 C 439.554382 276.273926 434.88147 273.504944 432.344421 271.426025 C 429.807312 269.347046 426.432434 265.597656 424.844666 263.093994 C 423.256897 260.590332 421.17981 256.073792 420.228882 253.05719 C 419.278015 250.040649 418.520569 245.081238 418.545654 242.036255 C 418.570801 238.991333 419.388794 233.917358 420.363525 230.760803 C 421.338196 227.604187 423.574585 222.933533 425.333252 220.381592 C 427.091919 217.82959 431.018188 213.77887 434.058289 211.380005 C 438.405029 207.950134 441.426636 206.542542 448.20343 204.790649 C 456.046387 202.763184 457.390991 202.677063 463.160522 203.833069 C 466.647217 204.531677 471.765015 206.190369 474.533325 207.519165 C 477.301636 208.8479 481.747803 212.087219 484.413574 214.717529 C 487.125732 217.393677 490.634521 222.362793 492.380249 226 C 495.161865 231.795471 495.5 233.477112 495.5 241.514771 C 495.5 249.164673 495.07373 251.532532 492.684448 257.154297 C 491.068787 260.95575 488.002808 265.726624 485.490234 268.348877 C 483.079224 270.865173 477.952148 274.509705 474.08075 276.459351 C 467.521301 279.762634 466.42804 279.998413 457.774963 279.976257 Z"/>
</svg>
